<mxfile host="app.diagrams.net" modified="2023-10-29T17:10:13.835Z" agent="Mozilla/5.0 (Windows NT 10.0; Win64; x64) AppleWebKit/537.36 (KHTML, like Gecko) Chrome/118.0.0.0 Safari/537.36" etag="6dI1qGr1TksJ5q_S8JHt" version="22.0.8" type="github">
  <diagram name="Página-1" id="ixk_QxQWowSIHumLhs-q">
    <mxGraphModel dx="819" dy="429" grid="1" gridSize="10" guides="1" tooltips="1" connect="1" arrows="1" fold="1" page="1" pageScale="1" pageWidth="827" pageHeight="1169" math="0" shadow="0">
      <root>
        <mxCell id="0" />
        <mxCell id="1" parent="0" />
        <mxCell id="otddVDofJfXvo8xMDCYf-1" value="&lt;span style=&quot;color: rgb(0, 0, 0); font-family: Helvetica; font-size: 12px; font-style: normal; font-variant-ligatures: normal; font-variant-caps: normal; font-weight: 400; letter-spacing: normal; orphans: 2; text-align: left; text-indent: 0px; text-transform: none; widows: 2; word-spacing: 0px; -webkit-text-stroke-width: 0px; text-decoration-thickness: initial; text-decoration-style: initial; text-decoration-color: initial; float: none; display: inline !important;&quot;&gt;Desarrollo de Soluciones de Software&amp;nbsp;&lt;/span&gt;&lt;span style=&quot;color: rgb(0, 0, 0); font-family: Helvetica; font-size: 12px; font-style: normal; font-variant-ligatures: normal; font-variant-caps: normal; font-weight: 400; letter-spacing: normal; orphans: 2; text-align: left; text-indent: 0px; text-transform: none; widows: 2; word-spacing: 0px; -webkit-text-stroke-width: 0px; text-decoration-thickness: initial; text-decoration-style: initial; text-decoration-color: initial; float: none; display: inline !important;&quot;&gt;y su Impacto en la Sociedad&lt;/span&gt;" style="rounded=1;whiteSpace=wrap;html=1;fillColor=#d5e8d4;strokeColor=#82b366;" vertex="1" parent="1">
          <mxGeometry x="310" y="70" width="230" height="60" as="geometry" />
        </mxCell>
        <mxCell id="otddVDofJfXvo8xMDCYf-2" value="Desarrollo de Soluciones de Software&#xa;                          y su Impacto en la Sociedad&#xa;&#xa;&#xa;                   |                      |                      |&#xa;                   V                      V                      V&#xa;          Salud Pública          Seguridad de los Usuarios      Bienestar&#xa;          - Impacto en           - Posibles Riesgos y           - Promoción del&#xa;            la Salud             Accidentes                    Bienestar&#xa;            de los Usuarios       - Diseño Seguro              - Consideración&#xa;          - Efectos Adversos       - Información y Avisos        de Factores&#xa;            de la Aplicación      - Pruebas y Simulaciones       Psicológicos&#xa;          - Cumplimiento de       - Protección de Datos          - Reducción de&#xa;            Normativas            - Seguridad en el             Estrés y Ansiedad&#xa;          - Prevención de         Almacenamiento de Datos       - Facilitar la&#xa;            Enfermedades         - Responsabilidad Legal        Conexión Social&#xa;            Transmitibles       - Privacidad de los Usuarios   - Mejora de la&#xa;            - Promoción de       - Ciberseguridad               Calidad de Vida&#xa;              la Salud           - Medidas de Autenticación     - Accesibilidad&#xa;          - Condiciones de        - Evaluación de Riesgos        - Consideración&#xa;            Salud Mental         - Educación y Capacitación      de Necesidades&#xa;            - Prevención de       en Seguridad                   Especiales&#xa;            Adicciones          - Monitoreo Continuo           - Protección de&#xa;          - Impacto en la         - Informes de Seguridad         Grupos Vulnerables&#xa;            Comunidad            - Actualizaciones y Parches    - Impacto Social&#xa;            - Ética en la       - Evaluación de Impacto         - Participación&#xa;              Recopilación       - Comunicación de Riesgos       de la Comunidad&#xa;              de Datos           - Colaboración con             - Evaluación&#xa;          - Transparencia y       Profesionales de Salud         de Impacto&#xa;            Responsabilidad    - Salud y Síndromes Epilépticos&#xa;&#xa;&#xa;                  Reflexión: Considerar el Impacto de las Soluciones&#xa;                          de Software en la Salud y el Bienestar" style="text;whiteSpace=wrap;" vertex="1" parent="1">
          <mxGeometry x="220" y="410" width="440" height="510" as="geometry" />
        </mxCell>
        <mxCell id="otddVDofJfXvo8xMDCYf-3" value="Salud publica" style="rounded=1;whiteSpace=wrap;html=1;fillColor=#dae8fc;strokeColor=#6c8ebf;" vertex="1" parent="1">
          <mxGeometry x="150" y="170" width="120" height="60" as="geometry" />
        </mxCell>
        <mxCell id="otddVDofJfXvo8xMDCYf-4" value="Seguridad de los usuarios" style="rounded=1;whiteSpace=wrap;html=1;fillColor=#dae8fc;strokeColor=#6c8ebf;" vertex="1" parent="1">
          <mxGeometry x="365" y="170" width="120" height="60" as="geometry" />
        </mxCell>
        <mxCell id="otddVDofJfXvo8xMDCYf-5" value="Bienestar" style="rounded=1;whiteSpace=wrap;html=1;fillColor=#dae8fc;strokeColor=#6c8ebf;" vertex="1" parent="1">
          <mxGeometry x="570" y="170" width="120" height="60" as="geometry" />
        </mxCell>
      </root>
    </mxGraphModel>
  </diagram>
</mxfile>
